# xmcd
#
# Track frame offsets: 
#        300
#        21262
#        38673
#        54490
#        79588
#        91547
#        109961
#        125715
#        138593
#        156491
#        173380
#        189308
#        211189
#        228370
#        241241
#        264647
#        285526
#        304197
#        321873
#        336200
#
# Disc length: 4699 seconds
#
# Revision: 0
# Processed by: cddbd v1.5.2PL0 Copyright (c) Steve Scherf et al.
# Submitted via: ExactAudioCopy v1.0b1
#
DISCID=11125714
DTITLE=Candye Kane - Songs From The Stage Play "The Toughest Girl Aliv
DTITLE=e"
DYEAR=2011
DGENRE=Blues
TTITLE0=You Need A Great Big Woman
TTITLE1=I'll Make It Right
TTITLE2=For Your Love
TTITLE3=Sharktown
TTITLE4=Babylon Boogie
TTITLE5=Please Tell Me A Lie
TTITLE6=I Didn't Listen To My Heart
TTITLE7=I'm Not Gonna Cry Today
TTITLE8=I Put A Hex On You
TTITLE9=Dance Hall Girls
TTITLE10=What Happened To The Girl I Met Here
TTITLE11=Superhero
TTITLE12=She Wore A Red Carnation
TTITLE13=I Got A Secret
TTITLE14=It Should Be Rainin'
TTITLE15=Love 'em And Forgive 'em
TTITLE16=I Could Fall For You
TTITLE17=Gifted In The Ways Of Love
TTITLE18=I'm The Toughest Girl Alive
TTITLE19=Some Lazy Afternoon
EXTD=
EXTT0=
EXTT1=
EXTT2=
EXTT3=
EXTT4=
EXTT5=
EXTT6=
EXTT7=
EXTT8=
EXTT9=
EXTT10=
EXTT11=
EXTT12=
EXTT13=
EXTT14=
EXTT15=
EXTT16=
EXTT17=
EXTT18=
EXTT19=
PLAYORDER=
